<mxfile host="app.diagrams.net" modified="2023-08-05T18:29:19.264Z" agent="Mozilla/5.0 (Windows NT 10.0; Win64; x64) AppleWebKit/537.36 (KHTML, like Gecko) Chrome/115.0.0.0 Safari/537.36" version="21.6.6" etag="onKZgNTj0b4U53yvw9oJ" type="github">
  <diagram name="Page-1" id="lc_kmF2xQcRKiOme0U5l">
    <mxGraphModel>
      <root>
        <mxCell id="0" />
        <mxCell id="1" parent="0" />
      </root>
    </mxGraphModel>
  </diagram>
</mxfile>
